<svg width="24" height="24" viewBox="0 0 24 24" fill="none" xmlns="http://www.w3.org/2000/svg">
<path d="M20.317 4.52004C18.7873 3.81648 17.147 3.29813 15.4319 3.00125C15.4007 2.99552 15.3695 3.00983 15.3534 3.03847C15.1424 3.41459 14.9087 3.90526 14.7451 4.29092C12.9004 4.01409 11.0652 4.01409 9.25832 4.29092C9.09465 3.89668 8.85248 3.41459 8.64057 3.03847C8.62448 3.01079 8.59328 2.99647 8.56205 3.00125C6.84791 3.29718 5.20756 3.81553 3.67694 4.52004C3.66368 4.52577 3.65233 4.53533 3.64479 4.54773C0.533392 9.20722 -0.31895 13.7522 0.0991801 18.2408C0.101072 18.2627 0.11337 18.2838 0.130398 18.2971C2.18321 19.8083 4.17171 20.7257 6.12328 21.3337C6.15451 21.3433 6.18761 21.3318 6.20748 21.3061C6.66913 20.6741 7.08064 20.0078 7.43348 19.3071C7.4543 19.266 7.43442 19.2174 7.39186 19.2011C6.73913 18.9529 6.1176 18.6503 5.51973 18.3067C5.47244 18.279 5.46865 18.2112 5.51216 18.1787C5.63797 18.0842 5.76382 17.9859 5.88395 17.8866C5.90569 17.8685 5.93598 17.8647 5.96153 17.8761C9.88928 19.6737 14.1415 19.6737 18.023 17.8761C18.0485 17.8637 18.0788 17.8675 18.1015 17.8857C18.2216 17.9849 18.3475 18.0842 18.4742 18.1787C18.5177 18.2112 18.5149 18.279 18.4676 18.3067C17.8697 18.657 17.2482 18.9529 16.5945 19.2002C16.552 19.2164 16.533 19.266 16.5538 19.3071C16.9143 20.0068 17.3258 20.6731 17.7789 21.3051C17.7978 21.3318 17.8319 21.3433 17.8631 21.3337C19.8241 20.7257 21.8126 19.8083 23.8654 18.2971C23.8834 18.2838 23.8948 18.2637 23.8967 18.2417C24.3971 13.0524 23.0585 8.54472 20.3482 4.54868C20.3416 4.53533 20.3303 4.52577 20.317 4.52004ZM8.02002 15.5077C6.8375 15.5077 5.86313 14.4195 5.86313 13.083C5.86313 11.7465 6.8186 10.6583 8.02002 10.6583C9.23087 10.6583 10.1958 11.7561 10.1769 13.083C10.1769 14.4195 9.22141 15.5077 8.02002 15.5077ZM15.9947 15.5077C14.8123 15.5077 13.8379 14.4195 13.8379 13.083C13.8379 11.7465 14.7933 10.6583 15.9947 10.6583C17.2056 10.6583 18.1705 11.7561 18.1516 13.083C18.1516 14.4195 17.2056 15.5077 15.9947 15.5077Z" fill="black"/>
</svg>
