<svg width="24" height="24" viewBox="0 0 24 24" fill="none" xmlns="http://www.w3.org/2000/svg">
<path fill-rule="evenodd" clip-rule="evenodd" d="M4.61683 2.7042H12C17.1339 2.7042 21.2957 6.86611 21.2957 12C21.2957 17.1339 17.1339 21.2958 12 21.2958C6.86611 21.2958 2.70428 17.1339 2.70428 12H0C0 18.6274 5.3725 24 12 24C14.1094 24 16.0917 23.4557 17.814 22.5H22.5V17.8141C23.4558 16.0917 24 14.1095 24 12C24 5.37259 18.6275 0 12 0H0V1.90879L7.1827 9.09428C6.67 9.94248 6.37503 10.9367 6.37503 12C6.37503 15.1066 8.89342 17.625 12 17.625C15.1066 17.625 17.625 15.1066 17.625 12C17.625 8.89342 15.1066 6.37503 12 6.37503C10.9371 6.37503 9.94281 6.66989 9.09483 7.18231L4.61683 2.7042ZM12 14.9208C13.6132 14.9208 14.9207 13.6131 14.9207 12C14.9207 10.3869 13.6132 9.07917 12 9.07917C10.3869 9.07917 9.07928 10.3869 9.07928 12C9.07928 13.6131 10.3869 14.9208 12 14.9208Z" fill="black"/>
</svg>
