<svg width="24" height="24" viewBox="0 0 24 24" fill="none" xmlns="http://www.w3.org/2000/svg">
<path d="M10.978 1.96396C11.1673 1.96396 11.3225 2.11914 11.3225 2.30848C11.3225 2.49809 11.1673 2.65339 10.978 2.65339H10.306V7.70121C10.306 7.77032 10.2888 7.82196 10.2544 7.8736C10.1164 8.18382 9.80622 8.78679 9.41007 9.56203C7.79062 12.8009 4.68917 18.9861 4.68917 20.3646C4.68917 21.1742 5.0166 21.8977 5.55072 22.4319L5.56794 22.4491C6.10219 22.9833 6.82565 23.3107 7.63544 23.3107H17.3181C18.1277 23.3107 18.8512 22.9662 19.3855 22.4319C19.9197 21.8978 20.2642 21.1742 20.2642 20.3646C20.2642 18.986 17.1457 12.8009 15.5261 9.56203C15.13 8.76932 14.8199 8.16648 14.6818 7.85638C14.6647 7.80475 14.6473 7.75271 14.6473 7.70121V2.65339H12.4766C12.2872 2.65339 12.1323 2.49822 12.1323 2.30848C12.1323 2.11914 12.2872 1.96396 12.4766 1.96396H14.8544C15.0266 1.96396 15.1817 1.89511 15.3022 1.77462C15.423 1.65387 15.4918 1.49896 15.4918 1.32683C15.4918 1.15444 15.423 0.981917 15.3022 0.861559C15.1817 0.75815 15.0266 0.689299 14.8544 0.689299H10.0992C9.92697 0.689299 9.75472 0.75815 9.65131 0.861559C9.53055 0.982048 9.4617 1.15444 9.4617 1.32683C9.4617 1.49896 9.51334 1.65387 9.6341 1.75741L9.65131 1.77462C9.75472 1.89511 9.90963 1.96396 10.082 1.96396H10.0992H10.978ZM10.2028 9.49317C10.2716 9.32078 10.4782 9.25206 10.6506 9.338C10.8228 9.42432 10.8918 9.63101 10.8055 9.8034L10.6678 10.0963L10.5298 10.3892C10.4438 10.5613 10.2372 10.63 10.0648 10.5441C9.89242 10.458 9.82357 10.2512 9.90963 10.0789L10.0476 9.78606L10.2028 9.49317ZM9.41007 11.0783C9.49613 10.9059 9.70295 10.8543 9.85799 10.9232C10.0305 11.0095 10.0992 11.216 10.0132 11.3886L9.87521 11.6814C9.44449 12.5427 8.9967 13.4043 8.60028 14.2313L8.42802 14.6104C8.34195 14.7825 8.13514 14.8516 7.96262 14.7825C7.79049 14.6964 7.72177 14.4896 7.8077 14.3175L7.99731 13.9384C8.41068 13.0424 8.84139 12.1981 9.27223 11.3712L9.41007 11.0783ZM6.36078 17.1426C5.75767 18.4867 5.22355 19.865 5.22355 20.3647C5.22355 21.6913 6.30887 22.7767 7.63557 22.7767H17.3182C18.6449 22.7767 19.7302 21.6913 19.7302 20.3647C19.7302 19.865 19.1788 18.4868 18.5933 17.1426H6.36078ZM7.51482 19.4C8.15222 19.4 8.66926 19.9338 8.66926 20.5714C8.66926 21.2088 8.15222 21.743 7.51482 21.743C6.86008 21.743 6.3433 21.2088 6.3433 20.5714C6.34343 19.9338 6.86008 19.4 7.51482 19.4ZM10.2716 17.8491C10.5298 17.8491 10.7538 18.0558 10.7538 18.3315C10.7538 18.5899 10.5298 18.7969 10.2716 18.7969C10.0132 18.7969 9.80622 18.5901 9.80622 18.3315C9.80622 18.0558 10.0132 17.8491 10.2716 17.8491ZM9.82357 19.193C10.2028 19.193 10.5126 19.5031 10.5126 19.8821C10.5126 20.2611 10.2029 20.5712 9.82357 20.5712C9.44449 20.5712 9.1344 20.2611 9.1344 19.8821C9.1344 19.5033 9.44436 19.193 9.82357 19.193ZM9.61688 2.56707C9.44436 2.49822 9.28958 2.39494 9.15148 2.25698L9.13427 2.23976C8.9105 1.99878 8.77254 1.67108 8.77254 1.32683C8.77254 0.964835 8.9105 0.620185 9.15148 0.378943C9.39272 0.137964 9.73724 0 10.0991 0H14.8543C15.216 0 15.5433 0.137964 15.7846 0.378943C16.0258 0.620185 16.1809 0.964835 16.1809 1.32683C16.1809 1.68817 16.0258 2.01587 15.7846 2.25698C15.664 2.39494 15.5089 2.49822 15.3368 2.56707V7.63235C15.5089 7.99422 15.7846 8.5629 16.1464 9.25193C17.8003 12.5425 20.9533 18.8312 20.9533 20.3647C20.9533 21.3639 20.5398 22.2595 19.8852 22.9316C19.2132 23.5865 18.3172 24 17.318 24H7.63531C6.653 24 5.7402 23.5865 5.08545 22.949L5.06837 22.9315C4.41363 22.2768 4 21.3638 4 20.3646C4 18.8312 7.15296 12.5425 8.80683 9.2518C9.15135 8.56263 9.44423 7.99409 9.61675 7.63222V2.56707H9.61688Z" fill="black"/>
</svg>
