<svg width="24" height="24" viewBox="0 0 24 24" fill="none" xmlns="http://www.w3.org/2000/svg">
<path d="M24 4.32049C23.117 4.71408 22.168 4.98009 21.172 5.09972C22.1886 4.48724 22.9693 3.51744 23.3369 2.36191C22.3856 2.92896 21.3318 3.34081 20.2102 3.56279C19.312 2.60101 18.0323 2 16.6162 2C13.8968 2 11.6921 4.21568 11.6921 6.94855C11.6921 7.3364 11.7358 7.7141 11.8197 8.07628C7.72742 7.86992 4.09929 5.89978 1.67076 2.90584C1.24692 3.63672 1.0041 4.4868 1.0041 5.3937C1.0041 7.11053 1.87346 8.62524 3.19465 9.51264C2.38745 9.48696 1.62827 9.26436 0.964337 8.89372C0.963986 8.91436 0.963986 8.9351 0.963986 8.95592C0.963986 11.3536 2.66125 13.3537 4.91377 13.8083C4.50056 13.9214 4.06558 13.9818 3.61646 13.9818C3.2992 13.9818 2.99072 13.9509 2.69013 13.8931C3.31667 15.8592 5.13508 17.2899 7.28972 17.3298C5.60456 18.6571 3.48144 19.4482 1.17459 19.4482C0.777175 19.4482 0.385208 19.4248 0 19.3791C2.17904 20.7832 4.76726 21.6024 7.5479 21.6024C16.6047 21.6024 21.5572 14.0618 21.5572 7.52238C21.5572 7.30781 21.5525 7.09439 21.543 6.8822C22.505 6.18449 23.3398 5.31288 24 4.32049Z" fill="black"/>
</svg>
